# xmcd
#
# Track frame offsets: 
#        150
#        21497
#        46865
#        72235
#        95043
#        120947
#        139198
#        158280
#        174940
#        199314
#        227957
#        243623
#        260793
#        284163
#        308698
#
# Disc length: 4388 seconds
#
# Revision: 1
# Processed by: cddbd v1.5.1PL2 Copyright (c) Steve Scherf et al.
# Submitted via: ExactAudioCopy v0.95b4
#
DISCID=d911220f
DTITLE=The Prodigy - Their Law - The Singles 1990-2005
DYEAR=2005
DGENRE=Dance
TTITLE0=Firestarter
TTITLE1=Their Law
TTITLE2=Breathe
TTITLE3=Out Of Space
TTITLE4=Smack My Bitch Up
TTITLE5=Poison
TTITLE6=Girls
TTITLE7=Voodoo People
TTITLE8=Charly
TTITLE9=No Good (start the dance)
TTITLE10=Spitfire
TTITLE11=Jericho
TTITLE12=Everybody In the Place
TTITLE13=One Love
TTITLE14=Hot Ride
EXTD=YEAR: 2005
EXTT0=
EXTT1=
EXTT2=
EXTT3=
EXTT4=
EXTT5=
EXTT6=
EXTT7=
EXTT8=
EXTT9=
EXTT10=
EXTT11=
EXTT12=
EXTT13=
EXTT14=
PLAYORDER=
